<mxfile host="app.diagrams.net" modified="2023-04-11T06:28:14.143Z" agent="Mozilla/5.0 (Windows NT 10.0; Win64; x64) AppleWebKit/537.36 (KHTML, like Gecko) Chrome/111.0.0.0 Safari/537.36" etag="XjK8NgF6WRw6wBeRMZm7" version="21.1.5" type="device">
  <diagram id="RJ2XyFarGaOCWqrOaHv-" name="Page-1">
    <mxGraphModel dx="463" dy="258" grid="1" gridSize="10" guides="1" tooltips="1" connect="1" arrows="1" fold="1" page="1" pageScale="1" pageWidth="827" pageHeight="1169" math="0" shadow="0">
      <root>
        <mxCell id="0" />
        <mxCell id="1" parent="0" />
        <mxCell id="gFR2fEc5Dq7jVJR8afbh-1" value="Bangun Ruang" style="swimlane;fontStyle=0;childLayout=stackLayout;horizontal=1;startSize=26;horizontalStack=0;resizeParent=1;resizeParentMax=0;resizeLast=0;collapsible=1;marginBottom=0;align=center;fontSize=14;strokeWidth=1;fillColor=default;swimlaneLine=1;glass=0;rounded=0;sketch=0;shadow=0;strokeColor=default;" parent="1" vertex="1">
          <mxGeometry x="316" y="50" width="196" height="340" as="geometry">
            <mxRectangle x="316" y="50" width="130" height="30" as="alternateBounds" />
          </mxGeometry>
        </mxCell>
        <mxCell id="gFR2fEc5Dq7jVJR8afbh-2" value="+ pi = 3.14 ! : double&#xa;+ panjang : double&#xa;+ lebar : double&#xa;+ alas : double&#xa;+ tinggi : double&#xa;+ r (jari-jari) : double" style="text;strokeColor=#000000;fillColor=none;spacingLeft=4;spacingRight=4;overflow=hidden;rotatable=0;points=[[0,0.5],[1,0.5]];portConstraint=eastwest;fontSize=12;strokeWidth=0;fillStyle=hatch;sketch=0;shadow=0;glass=0;rounded=0;" parent="gFR2fEc5Dq7jVJR8afbh-1" vertex="1">
          <mxGeometry y="26" width="196" height="104" as="geometry" />
        </mxCell>
        <mxCell id="gFR2fEc5Dq7jVJR8afbh-3" value="+ hitungLuasPermukaan() : double&#xa;+ hitungVolume() : double&#xa;+ reqHitung() : void&#xa;+ getPi() : double&#xa;+ getPanjang() : double&#xa;+ setPanjang() : void&#xa;+ getLebar() : double&#xa;+ setLebar() : void&#xa;+ getAlas() : double&#xa;+ setAlas() : void&#xa;+ getTinggi() : double&#xa;+ setTinggi() : void&#xa;+ getJariJari() : double&#xa;+ setJariJari() : void" style="text;strokeColor=default;fillColor=none;spacingLeft=4;spacingRight=4;overflow=hidden;rotatable=0;points=[[0,0.5],[1,0.5]];portConstraint=eastwest;fontSize=12;strokeWidth=0;" parent="gFR2fEc5Dq7jVJR8afbh-1" vertex="1">
          <mxGeometry y="130" width="196" height="210" as="geometry" />
        </mxCell>
        <mxCell id="gFR2fEc5Dq7jVJR8afbh-25" style="edgeStyle=orthogonalEdgeStyle;rounded=0;orthogonalLoop=1;jettySize=auto;html=1;" parent="1" source="gFR2fEc5Dq7jVJR8afbh-5" target="gFR2fEc5Dq7jVJR8afbh-1" edge="1">
          <mxGeometry relative="1" as="geometry">
            <Array as="points">
              <mxPoint x="120" y="440" />
              <mxPoint x="414" y="440" />
            </Array>
          </mxGeometry>
        </mxCell>
        <mxCell id="gFR2fEc5Dq7jVJR8afbh-5" value="Kubus" style="swimlane;fontStyle=0;childLayout=stackLayout;horizontal=1;startSize=26;horizontalStack=0;resizeParent=1;resizeParentMax=0;resizeLast=0;collapsible=1;marginBottom=0;align=center;fontSize=14;rounded=0;shadow=0;glass=0;sketch=0;fillStyle=auto;strokeColor=default;strokeWidth=1;fillColor=default;swimlaneLine=1;" parent="1" vertex="1">
          <mxGeometry x="40" y="480" width="160" height="56" as="geometry" />
        </mxCell>
        <mxCell id="gFR2fEc5Dq7jVJR8afbh-6" value="+ runKubus() : void" style="text;strokeColor=default;fillColor=none;spacingLeft=4;spacingRight=4;overflow=hidden;rotatable=0;points=[[0,0.5],[1,0.5]];portConstraint=eastwest;fontSize=12;rounded=0;shadow=0;glass=0;sketch=0;fillStyle=auto;strokeWidth=0;" parent="gFR2fEc5Dq7jVJR8afbh-5" vertex="1">
          <mxGeometry y="26" width="160" height="30" as="geometry" />
        </mxCell>
        <mxCell id="gFR2fEc5Dq7jVJR8afbh-26" style="edgeStyle=orthogonalEdgeStyle;rounded=0;orthogonalLoop=1;jettySize=auto;html=1;" parent="1" source="gFR2fEc5Dq7jVJR8afbh-11" target="gFR2fEc5Dq7jVJR8afbh-1" edge="1">
          <mxGeometry relative="1" as="geometry">
            <Array as="points">
              <mxPoint x="520" y="440" />
              <mxPoint x="414" y="440" />
            </Array>
          </mxGeometry>
        </mxCell>
        <mxCell id="gFR2fEc5Dq7jVJR8afbh-11" value="Bola" style="swimlane;fontStyle=0;childLayout=stackLayout;horizontal=1;startSize=26;horizontalStack=0;resizeParent=1;resizeParentMax=0;resizeLast=0;collapsible=1;marginBottom=0;align=center;fontSize=14;rounded=0;shadow=0;glass=0;sketch=0;fillStyle=auto;strokeColor=default;strokeWidth=1;fillColor=default;swimlaneLine=1;" parent="1" vertex="1">
          <mxGeometry x="440" y="480" width="160" height="56" as="geometry" />
        </mxCell>
        <mxCell id="gFR2fEc5Dq7jVJR8afbh-12" value="+ runBola() : void" style="text;strokeColor=default;fillColor=none;spacingLeft=4;spacingRight=4;overflow=hidden;rotatable=0;points=[[0,0.5],[1,0.5]];portConstraint=eastwest;fontSize=12;rounded=0;shadow=0;glass=0;sketch=0;fillStyle=auto;strokeWidth=0;" parent="gFR2fEc5Dq7jVJR8afbh-11" vertex="1">
          <mxGeometry y="26" width="160" height="30" as="geometry" />
        </mxCell>
        <mxCell id="gFR2fEc5Dq7jVJR8afbh-27" style="edgeStyle=orthogonalEdgeStyle;rounded=0;orthogonalLoop=1;jettySize=auto;html=1;" parent="1" source="gFR2fEc5Dq7jVJR8afbh-14" target="gFR2fEc5Dq7jVJR8afbh-1" edge="1">
          <mxGeometry relative="1" as="geometry">
            <Array as="points">
              <mxPoint x="720" y="440" />
              <mxPoint x="414" y="440" />
            </Array>
          </mxGeometry>
        </mxCell>
        <mxCell id="gFR2fEc5Dq7jVJR8afbh-14" value="Tabung" style="swimlane;fontStyle=0;childLayout=stackLayout;horizontal=1;startSize=26;horizontalStack=0;resizeParent=1;resizeParentMax=0;resizeLast=0;collapsible=1;marginBottom=0;align=center;fontSize=14;rounded=0;shadow=0;glass=0;sketch=0;fillStyle=auto;strokeColor=default;strokeWidth=1;fillColor=default;swimlaneLine=1;" parent="1" vertex="1">
          <mxGeometry x="640" y="480" width="160" height="56" as="geometry" />
        </mxCell>
        <mxCell id="gFR2fEc5Dq7jVJR8afbh-15" value="+ runTabung() : void" style="text;strokeColor=default;fillColor=none;spacingLeft=4;spacingRight=4;overflow=hidden;rotatable=0;points=[[0,0.5],[1,0.5]];portConstraint=eastwest;fontSize=12;rounded=0;shadow=0;glass=0;sketch=0;fillStyle=auto;strokeWidth=0;" parent="gFR2fEc5Dq7jVJR8afbh-14" vertex="1">
          <mxGeometry y="26" width="160" height="30" as="geometry" />
        </mxCell>
        <mxCell id="gFR2fEc5Dq7jVJR8afbh-24" style="edgeStyle=orthogonalEdgeStyle;rounded=0;orthogonalLoop=1;jettySize=auto;html=1;" parent="1" source="gFR2fEc5Dq7jVJR8afbh-20" target="gFR2fEc5Dq7jVJR8afbh-1" edge="1">
          <mxGeometry relative="1" as="geometry">
            <Array as="points">
              <mxPoint x="320" y="440" />
              <mxPoint x="414" y="440" />
            </Array>
          </mxGeometry>
        </mxCell>
        <mxCell id="gFR2fEc5Dq7jVJR8afbh-20" value="Balok" style="swimlane;fontStyle=0;childLayout=stackLayout;horizontal=1;startSize=26;horizontalStack=0;resizeParent=1;resizeParentMax=0;resizeLast=0;collapsible=1;marginBottom=0;align=center;fontSize=14;rounded=0;shadow=0;glass=0;sketch=0;fillStyle=auto;strokeColor=default;strokeWidth=1;fillColor=default;swimlaneLine=1;" parent="1" vertex="1">
          <mxGeometry x="240" y="480" width="160" height="56" as="geometry" />
        </mxCell>
        <mxCell id="gFR2fEc5Dq7jVJR8afbh-21" value="+ runBalok() : void" style="text;strokeColor=default;fillColor=none;spacingLeft=4;spacingRight=4;overflow=hidden;rotatable=0;points=[[0,0.5],[1,0.5]];portConstraint=eastwest;fontSize=12;rounded=0;shadow=0;glass=0;sketch=0;fillStyle=auto;strokeWidth=0;" parent="gFR2fEc5Dq7jVJR8afbh-20" vertex="1">
          <mxGeometry y="26" width="160" height="30" as="geometry" />
        </mxCell>
      </root>
    </mxGraphModel>
  </diagram>
</mxfile>
